<?xml version="1.0" encoding="us-ascii" standalone="no"?><svg xmlns="http://www.w3.org/2000/svg" xmlns:xlink="http://www.w3.org/1999/xlink" contentStyleType="text/css" height="1479px" preserveAspectRatio="none" style="width:1809px;height:1479px;background:#FFFFFF;" version="1.1" viewBox="0 0 1809 1479" width="1809px" zoomAndPan="magnify"><defs/><g><!--class AbstractUser--><g id="elem_AbstractUser"><rect codeLine="7" fill="#F1F1F1" height="273.8829" id="AbstractUser" rx="2.5" ry="2.5" style="stroke:#181818;stroke-width:0.5;" width="278" x="375.5" y="131.14"/><text fill="#000000" font-family="sans-serif" font-size="14" font-style="italic" lengthAdjust="spacing" textLength="80" x="474.5" y="151.1059">AbstractUser</text><line style="stroke:#181818;stroke-width:0.5;" x1="376.5" x2="652.5" y1="160.2079" y2="160.2079"/><ellipse cx="386.5" cy="175.2419" fill="none" rx="3" ry="3" style="stroke:#038048;stroke-width:1.0;"/><text fill="#000000" font-family="sans-serif" font-size="14" lengthAdjust="spacing" textLength="68" x="395.5" y="179.1739">username</text><ellipse cx="386.5" cy="194.3098" fill="none" rx="3" ry="3" style="stroke:#038048;stroke-width:1.0;"/><text fill="#000000" font-family="sans-serif" font-size="14" lengthAdjust="spacing" textLength="65" x="395.5" y="198.2418">password</text><ellipse cx="386.5" cy="213.3777" fill="none" rx="3" ry="3" style="stroke:#038048;stroke-width:1.0;"/><text fill="#000000" font-family="sans-serif" font-size="14" lengthAdjust="spacing" textLength="71" x="395.5" y="217.3097">first_name</text><ellipse cx="386.5" cy="232.4456" fill="none" rx="3" ry="3" style="stroke:#038048;stroke-width:1.0;"/><text fill="#000000" font-family="sans-serif" font-size="14" lengthAdjust="spacing" textLength="68" x="395.5" y="236.3776">last_name</text><ellipse cx="386.5" cy="251.5135" fill="none" rx="3" ry="3" style="stroke:#038048;stroke-width:1.0;"/><text fill="#000000" font-family="sans-serif" font-size="14" lengthAdjust="spacing" textLength="37" x="395.5" y="255.4455">email</text><ellipse cx="386.5" cy="270.5815" fill="none" rx="3" ry="3" style="stroke:#038048;stroke-width:1.0;"/><text fill="#000000" font-family="sans-serif" font-size="14" lengthAdjust="spacing" textLength="47" x="395.5" y="274.5134">is_staff</text><ellipse cx="386.5" cy="289.6494" fill="none" rx="3" ry="3" style="stroke:#038048;stroke-width:1.0;"/><text fill="#000000" font-family="sans-serif" font-size="14" lengthAdjust="spacing" textLength="56" x="395.5" y="293.5814">is_active</text><ellipse cx="386.5" cy="308.7173" fill="none" rx="3" ry="3" style="stroke:#038048;stroke-width:1.0;"/><text fill="#000000" font-family="sans-serif" font-size="14" lengthAdjust="spacing" textLength="86" x="395.5" y="312.6493">is_superuser</text><ellipse cx="386.5" cy="327.7852" fill="none" rx="3" ry="3" style="stroke:#038048;stroke-width:1.0;"/><text fill="#000000" font-family="sans-serif" font-size="14" lengthAdjust="spacing" textLength="64" x="395.5" y="331.7172">last_login</text><ellipse cx="386.5" cy="346.8531" fill="none" rx="3" ry="3" style="stroke:#038048;stroke-width:1.0;"/><text fill="#000000" font-family="sans-serif" font-size="14" lengthAdjust="spacing" textLength="78" x="395.5" y="350.7851">date_joined</text><ellipse cx="386.5" cy="365.921" fill="none" rx="3" ry="3" style="stroke:#038048;stroke-width:1.0;"/><text fill="#000000" font-family="sans-serif" font-size="14" lengthAdjust="spacing" textLength="182" x="395.5" y="369.853">groups : manyToManyField</text><ellipse cx="386.5" cy="384.989" fill="none" rx="3" ry="3" style="stroke:#038048;stroke-width:1.0;"/><text fill="#000000" font-family="sans-serif" font-size="14" lengthAdjust="spacing" textLength="252" x="395.5" y="388.9209">user_permissions : manyToManyField</text><line style="stroke:#181818;stroke-width:0.5;" x1="376.5" x2="652.5" y1="397.0229" y2="397.0229"/></g><!--class User--><g id="elem_User"><rect codeLine="22" fill="#F1F1F1" height="235.7471" id="User" rx="2.5" ry="2.5" style="stroke:#181818;stroke-width:0.5;" width="596" x="216.5" y="465.02"/><text fill="#000000" font-family="sans-serif" font-size="14" lengthAdjust="spacing" textLength="31" x="499" y="484.9859">User</text><line style="stroke:#181818;stroke-width:0.5;" x1="217.5" x2="811.5" y1="494.0879" y2="494.0879"/><ellipse cx="227.5" cy="509.1219" fill="none" rx="3" ry="3" style="stroke:#038048;stroke-width:1.0;"/><text fill="#000000" font-family="sans-serif" font-size="14" lengthAdjust="spacing" textLength="191" x="236.5" y="513.0539">username : {derived} {None}</text><ellipse cx="227.5" cy="528.1898" fill="none" rx="3" ry="3" style="stroke:#038048;stroke-width:1.0;"/><text fill="#000000" font-family="sans-serif" font-size="14" lengthAdjust="spacing" textLength="172" x="236.5" y="532.1218">email : {derived} {unique}</text><line style="stroke:#181818;stroke-width:1.0;" x1="217.5" x2="811.5" y1="540.2238" y2="540.2238"/><ellipse cx="227.5" cy="555.2577" fill="none" rx="3" ry="3" style="stroke:#038048;stroke-width:1.0;"/><text fill="#000000" font-family="sans-serif" font-size="14" lengthAdjust="spacing" textLength="119" x="236.5" y="559.1897">full_name : String</text><ellipse cx="227.5" cy="574.3256" fill="none" rx="3" ry="3" style="stroke:#038048;stroke-width:1.0;"/><text fill="#000000" font-family="sans-serif" font-size="14" lengthAdjust="spacing" textLength="200" x="236.5" y="578.2576">date_of_birth : Date {optional}</text><ellipse cx="227.5" cy="593.3935" fill="none" rx="3" ry="3" style="stroke:#038048;stroke-width:1.0;"/><text fill="#000000" font-family="sans-serif" font-size="14" lengthAdjust="spacing" textLength="166" x="236.5" y="597.3255">avatar : Image {optional}</text><ellipse cx="227.5" cy="612.4615" fill="none" rx="3" ry="3" style="stroke:#038048;stroke-width:1.0;"/><text fill="#000000" font-family="sans-serif" font-size="14" lengthAdjust="spacing" textLength="295" x="236.5" y="616.3934">created_at : DateTime {auto_now_add=True}</text><ellipse cx="227.5" cy="631.5294" fill="none" rx="3" ry="3" style="stroke:#038048;stroke-width:1.0;"/><text fill="#000000" font-family="sans-serif" font-size="14" lengthAdjust="spacing" textLength="269" x="236.5" y="635.4614">updated_at : DateTime {auto_now=True}</text><text fill="#000000" font-family="sans-serif" font-size="14" lengthAdjust="spacing" textLength="4" x="236.5" y="654.5293">&#160;</text><ellipse cx="227.5" cy="669.6652" fill="none" rx="3" ry="3" style="stroke:#038048;stroke-width:1.0;"/><text fill="#000000" font-family="sans-serif" font-size="14" lengthAdjust="spacing" textLength="570" x="236.5" y="673.5972">phone : Str {optional} 'Could potentially use the  django-phonenumber-field package</text><ellipse cx="227.5" cy="688.7331" fill="none" rx="3" ry="3" style="stroke:#038048;stroke-width:1.0;"/><text fill="#000000" font-family="sans-serif" font-size="14" lengthAdjust="spacing" textLength="213" x="236.5" y="692.6651">is_verified : Bool {default=False}</text></g><!--class modelsModel--><g id="elem_modelsModel"><rect codeLine="38" fill="#F1F1F1" height="64.1358" id="modelsModel" rx="2.5" ry="2.5" style="stroke:#181818;stroke-width:0.5;" width="100" x="119.5" y="7"/><text fill="#000000" font-family="sans-serif" font-size="14" font-style="italic" lengthAdjust="spacing" textLength="88" x="125.5" y="26.9659">models.Model</text><line style="stroke:#181818;stroke-width:0.5;" x1="120.5" x2="218.5" y1="36.0679" y2="36.0679"/><text fill="#000000" font-family="sans-serif" font-size="14" lengthAdjust="spacing" textLength="88" x="125.5" y="55.0339">&#171;Framework&#187;</text><line style="stroke:#181818;stroke-width:0.5;" x1="120.5" x2="218.5" y1="63.1358" y2="63.1358"/></g><!--class TimeStampedModel--><g id="elem_TimeStampedModel"><rect codeLine="42" fill="#F1F1F1" height="102.2717" id="TimeStampedModel" rx="2.5" ry="2.5" style="stroke:#181818;stroke-width:0.5;" width="325" x="7" y="216.94"/><text fill="#000000" font-family="sans-serif" font-size="14" font-style="italic" lengthAdjust="spacing" textLength="124" x="107.5" y="236.9059">TimeStampedModel</text><line style="stroke:#181818;stroke-width:0.5;" x1="8" x2="331" y1="246.0079" y2="246.0079"/><ellipse cx="18" cy="261.0419" fill="none" rx="3" ry="3" style="stroke:#038048;stroke-width:1.0;"/><text fill="#000000" font-family="sans-serif" font-size="14" lengthAdjust="spacing" textLength="299" x="27" y="264.9739">created_at : DateTime { auto_now_add=True}</text><ellipse cx="18" cy="280.1098" fill="none" rx="3" ry="3" style="stroke:#038048;stroke-width:1.0;"/><text fill="#000000" font-family="sans-serif" font-size="14" lengthAdjust="spacing" textLength="277" x="27" y="284.0418">updated_at : DateTime { auto_now=True }</text><line style="stroke:#181818;stroke-width:1.0;" x1="8" x2="331" y1="292.1438" y2="292.1438"/><text fill="#000000" font-family="sans-serif" font-size="14" lengthAdjust="spacing" textLength="140" x="13" y="311.1097">Meta : abstract=True</text></g><!--class SoftDeleteModel--><g id="elem_SoftDeleteModel"><rect codeLine="49" fill="#F1F1F1" height="129.3396" id="SoftDeleteModel" rx="2.5" ry="2.5" style="stroke:#181818;stroke-width:0.5;" width="299" x="848" y="518.22"/><text fill="#000000" font-family="sans-serif" font-size="14" font-style="italic" lengthAdjust="spacing" textLength="102" x="946.5" y="538.1859">SoftDeleteModel</text><line style="stroke:#181818;stroke-width:0.5;" x1="849" x2="1146" y1="547.2879" y2="547.2879"/><ellipse cx="859" cy="562.3219" fill="none" rx="3" ry="3" style="stroke:#038048;stroke-width:1.0;"/><text fill="#000000" font-family="sans-serif" font-size="14" lengthAdjust="spacing" textLength="273" x="868" y="566.2539">deleted_at: DateTime {nullable, indexed}</text><line style="stroke:#181818;stroke-width:1.0;" x1="849" x2="1146" y1="574.3558" y2="574.3558"/><ellipse cx="859" cy="589.3898" fill="#84BE84" rx="3" ry="3" style="stroke:#038048;stroke-width:1.0;"/><text fill="#000000" font-family="sans-serif" font-size="14" lengthAdjust="spacing" textLength="50" x="868" y="593.3218">delete()</text><ellipse cx="859" cy="608.4577" fill="#84BE84" rx="3" ry="3" style="stroke:#038048;stroke-width:1.0;"/><text fill="#000000" font-family="sans-serif" font-size="14" lengthAdjust="spacing" textLength="88" x="868" y="612.3897">hard_delete()</text><line style="stroke:#181818;stroke-width:1.0;" x1="849" x2="1146" y1="620.4917" y2="620.4917"/><text fill="#000000" font-family="sans-serif" font-size="14" lengthAdjust="spacing" textLength="136" x="854" y="639.4576">Meta: abstract=True</text></g><!--class Team--><g id="elem_Team"><rect codeLine="61" fill="#F1F1F1" height="121.3396" id="Team" rx="2.5" ry="2.5" style="stroke:#181818;stroke-width:0.5;" width="199" x="574" y="774.3"/><text fill="#000000" font-family="sans-serif" font-size="14" lengthAdjust="spacing" textLength="37" x="655" y="794.2659">Team</text><line style="stroke:#181818;stroke-width:0.5;" x1="575" x2="772" y1="803.3679" y2="803.3679"/><ellipse cx="585" cy="818.4019" fill="none" rx="3" ry="3" style="stroke:#038048;stroke-width:1.0;"/><text fill="#000000" font-family="sans-serif" font-size="14" lengthAdjust="spacing" textLength="131" x="594" y="822.3339">team_name : String</text><ellipse cx="585" cy="837.4698" fill="none" rx="3" ry="3" style="stroke:#038048;stroke-width:1.0;"/><text fill="#000000" font-family="sans-serif" font-size="14" lengthAdjust="spacing" textLength="109" x="594" y="841.4018">creator_id : &#171;FK&#187;</text><ellipse cx="585" cy="856.5377" fill="none" rx="3" ry="3" style="stroke:#038048;stroke-width:1.0;"/><text fill="#000000" font-family="sans-serif" font-size="14" lengthAdjust="spacing" textLength="173" x="594" y="860.4697">leader_id : &#171;FK&#187; {nullable}</text><ellipse cx="585" cy="875.6056" fill="none" rx="3" ry="3" style="stroke:#038048;stroke-width:1.0;"/><text fill="#000000" font-family="sans-serif" font-size="14" lengthAdjust="spacing" textLength="169" x="594" y="879.5376">coach_id : &#171;FK&#187; {nullable}</text><line style="stroke:#181818;stroke-width:1.0;" x1="575" x2="772" y1="887.6396" y2="887.6396"/></g><!--class TeamMember--><g id="elem_TeamMember"><rect codeLine="69" fill="#F1F1F1" height="102.2717" id="TeamMember" rx="2.5" ry="2.5" style="stroke:#181818;stroke-width:0.5;" width="284" x="284.5" y="978.71"/><text fill="#000000" font-family="sans-serif" font-size="14" lengthAdjust="spacing" textLength="94" x="379.5" y="998.6759">TeamMember</text><line style="stroke:#181818;stroke-width:0.5;" x1="285.5" x2="567.5" y1="1007.7779" y2="1007.7779"/><ellipse cx="295.5" cy="1022.8119" fill="none" rx="3" ry="3" style="stroke:#038048;stroke-width:1.0;"/><text fill="#000000" font-family="sans-serif" font-size="14" lengthAdjust="spacing" textLength="95" x="304.5" y="1026.7439">team_id : &#171;FK&#187;</text><ellipse cx="295.5" cy="1041.8798" fill="none" rx="3" ry="3" style="stroke:#038048;stroke-width:1.0;"/><text fill="#000000" font-family="sans-serif" font-size="14" lengthAdjust="spacing" textLength="91" x="304.5" y="1045.8118">user_id : &#171;FK&#187;</text><line style="stroke:#181818;stroke-width:1.0;" x1="285.5" x2="567.5" y1="1053.9138" y2="1053.9138"/><text fill="#000000" font-family="sans-serif" font-size="14" lengthAdjust="spacing" textLength="272" x="290.5" y="1072.8797">{ unique_together = ('team_id', 'user_id')}</text></g><!--class Event--><g id="elem_Event"><rect codeLine="77" fill="#F1F1F1" height="140.4075" id="Event" rx="2.5" ry="2.5" style="stroke:#181818;stroke-width:0.5;" width="361" x="815" y="764.77"/><text fill="#000000" font-family="sans-serif" font-size="14" lengthAdjust="spacing" textLength="37" x="977" y="784.7359">Event</text><line style="stroke:#181818;stroke-width:0.5;" x1="816" x2="1175" y1="793.8379" y2="793.8379"/><ellipse cx="826" cy="808.8719" fill="none" rx="3" ry="3" style="stroke:#038048;stroke-width:1.0;"/><text fill="#000000" font-family="sans-serif" font-size="14" lengthAdjust="spacing" textLength="134" x="835" y="812.8039">event_name : String</text><ellipse cx="826" cy="827.9398" fill="none" rx="3" ry="3" style="stroke:#038048;stroke-width:1.0;"/><text fill="#000000" font-family="sans-serif" font-size="14" lengthAdjust="spacing" textLength="335" x="835" y="831.8718">event_type : Enum{Tournament, League, Friendly}</text><ellipse cx="826" cy="847.0077" fill="none" rx="3" ry="3" style="stroke:#038048;stroke-width:1.0;"/><text fill="#000000" font-family="sans-serif" font-size="14" lengthAdjust="spacing" textLength="106" x="835" y="850.9397">location : String</text><ellipse cx="826" cy="866.0756" fill="none" rx="3" ry="3" style="stroke:#038048;stroke-width:1.0;"/><text fill="#000000" font-family="sans-serif" font-size="14" lengthAdjust="spacing" textLength="143" x="835" y="870.0076">start_time : DateTime</text><ellipse cx="826" cy="885.1435" fill="none" rx="3" ry="3" style="stroke:#038048;stroke-width:1.0;"/><text fill="#000000" font-family="sans-serif" font-size="14" lengthAdjust="spacing" textLength="287" x="835" y="889.0755">end_time : DateTime end_time &gt; start_time</text><line style="stroke:#181818;stroke-width:0.5;" x1="816" x2="1175" y1="897.1775" y2="897.1775"/></g><!--class EventTeamMember--><g id="elem_EventTeamMember"><rect codeLine="85" fill="#F1F1F1" height="121.3396" id="EventTeamMember" rx="2.5" ry="2.5" style="stroke:#181818;stroke-width:0.5;" width="569" x="603" y="969.17"/><text fill="#000000" font-family="sans-serif" font-size="14" lengthAdjust="spacing" textLength="131" x="822" y="989.1359">EventTeamMember</text><line style="stroke:#181818;stroke-width:0.5;" x1="604" x2="1171" y1="998.2379" y2="998.2379"/><ellipse cx="614" cy="1013.2719" fill="none" rx="3" ry="3" style="stroke:#038048;stroke-width:1.0;"/><text fill="#000000" font-family="sans-serif" font-size="14" lengthAdjust="spacing" textLength="98" x="623" y="1017.2039">event_id : &#171;FK&#187;</text><ellipse cx="614" cy="1032.3398" fill="none" rx="3" ry="3" style="stroke:#038048;stroke-width:1.0;"/><text fill="#000000" font-family="sans-serif" font-size="14" lengthAdjust="spacing" textLength="95" x="623" y="1036.2718">team_id : &#171;FK&#187;</text><ellipse cx="614" cy="1051.4077" fill="none" rx="3" ry="3" style="stroke:#038048;stroke-width:1.0;"/><text fill="#000000" font-family="sans-serif" font-size="14" lengthAdjust="spacing" textLength="91" x="623" y="1055.3397">user_id : &#171;FK&#187;</text><line style="stroke:#181818;stroke-width:1.0;" x1="604" x2="1171" y1="1063.4417" y2="1063.4417"/><text fill="#000000" font-family="sans-serif" font-size="14" lengthAdjust="spacing" textLength="557" x="609" y="1082.4076">{ unique_together = ('event_id', 'user_id') } '&#19968;&#20491;&#27604;&#36093;(event)&#19968;&#20491;user&#21482;&#33021;&#21443;&#21152;&#19968;&#20491;&#38538;&#20237;</text></g><!--class BaseMatch--><g id="elem_BaseMatch"><rect codeLine="93" fill="#F1F1F1" height="148.4075" id="BaseMatch" rx="2.5" ry="2.5" style="stroke:#181818;stroke-width:0.5;" width="591" x="1211" y="760.77"/><text fill="#000000" font-family="sans-serif" font-size="14" lengthAdjust="spacing" textLength="74" x="1469.5" y="780.7359">BaseMatch</text><line style="stroke:#181818;stroke-width:0.5;" x1="1212" x2="1801" y1="789.8379" y2="789.8379"/><ellipse cx="1222" cy="804.8719" fill="none" rx="3" ry="3" style="stroke:#038048;stroke-width:1.0;"/><text fill="#000000" font-family="sans-serif" font-size="14" lengthAdjust="spacing" textLength="121" x="1231" y="808.8039">match_date : Date</text><ellipse cx="1222" cy="823.9398" fill="none" rx="3" ry="3" style="stroke:#038048;stroke-width:1.0;"/><text fill="#000000" font-family="sans-serif" font-size="14" lengthAdjust="spacing" textLength="123" x="1231" y="827.8718">match_time : Time</text><ellipse cx="1222" cy="843.0077" fill="#84BE84" rx="3" ry="3" style="stroke:#038048;stroke-width:1.0;"/><text fill="#000000" font-family="sans-serif" font-size="14" lengthAdjust="spacing" textLength="565" x="1231" y="846.9397">match_number : Int 'TeamMatch:&#35442;&#27425;&#36093;&#20107;(Event)&#30340;&#31532;&#24190;&#22580;&#27425; PlayerMatch&#65306;&#31532;&#24190;&#20491;&#25490;&#40670;</text><line style="stroke:#181818;stroke-width:1.0;" x1="1212" x2="1801" y1="855.0417" y2="855.0417"/><ellipse cx="1222" cy="870.0756" fill="#84BE84" rx="3" ry="3" style="stroke:#038048;stroke-width:1.0;"/><text fill="#000000" font-family="sans-serif" font-size="14" lengthAdjust="spacing" textLength="549" x="1231" y="874.0076">status() -&gt; Enum{Scheduled, InProgress, Completed, Cancelled} : abstract method</text><line style="stroke:#181818;stroke-width:1.0;" x1="1212" x2="1801" y1="882.1096" y2="882.1096"/><text fill="#000000" font-family="sans-serif" font-size="14" lengthAdjust="spacing" textLength="136" x="1217" y="901.0755">Meta: abstract=True</text></g><!--class TeamMatch--><g id="elem_TeamMatch"><rect codeLine="107" fill="#F1F1F1" height="121.3396" id="TeamMatch" rx="2.5" ry="2.5" style="stroke:#181818;stroke-width:0.5;" width="594" x="1207.5" y="969.17"/><text fill="#000000" font-family="sans-serif" font-size="14" lengthAdjust="spacing" textLength="79" x="1465" y="989.1359">TeamMatch</text><line style="stroke:#181818;stroke-width:0.5;" x1="1208.5" x2="1800.5" y1="998.2379" y2="998.2379"/><ellipse cx="1218.5" cy="1013.2719" fill="none" rx="3" ry="3" style="stroke:#038048;stroke-width:1.0;"/><text fill="#000000" font-family="sans-serif" font-size="14" lengthAdjust="spacing" textLength="98" x="1227.5" y="1017.2039">event_id : &#171;FK&#187;</text><ellipse cx="1218.5" cy="1032.3398" fill="none" rx="3" ry="3" style="stroke:#038048;stroke-width:1.0;"/><text fill="#000000" font-family="sans-serif" font-size="14" lengthAdjust="spacing" textLength="109" x="1227.5" y="1036.2718">team_a_id : &#171;FK&#187;</text><ellipse cx="1218.5" cy="1051.4077" fill="none" rx="3" ry="3" style="stroke:#038048;stroke-width:1.0;"/><text fill="#000000" font-family="sans-serif" font-size="14" lengthAdjust="spacing" textLength="110" x="1227.5" y="1055.3397">team_b_id : &#171;FK&#187;</text><line style="stroke:#181818;stroke-width:1.0;" x1="1208.5" x2="1800.5" y1="1063.4417" y2="1063.4417"/><text fill="#000000" font-family="sans-serif" font-size="14" lengthAdjust="spacing" textLength="582" x="1213.5" y="1082.4076">Meta: constraints: team_a_id &lt; team_b_id, name="%(app_label)s_%(class)s_a_id_lt_b_id"</text></g><!--class PlayerMatch--><g id="elem_PlayerMatch"><rect codeLine="115" fill="#F1F1F1" height="121.3396" id="PlayerMatch" rx="2.5" ry="2.5" style="stroke:#181818;stroke-width:0.5;" width="399" x="1305" y="1150.51"/><text fill="#000000" font-family="sans-serif" font-size="14" lengthAdjust="spacing" textLength="83" x="1463" y="1170.4759">PlayerMatch</text><line style="stroke:#181818;stroke-width:0.5;" x1="1306" x2="1703" y1="1179.5779" y2="1179.5779"/><ellipse cx="1316" cy="1194.6119" fill="none" rx="3" ry="3" style="stroke:#038048;stroke-width:1.0;"/><text fill="#000000" font-family="sans-serif" font-size="14" lengthAdjust="spacing" textLength="143" x="1325" y="1198.5439">team_match_id : &#171;FK&#187;</text><ellipse cx="1316" cy="1213.6798" fill="none" rx="3" ry="3" style="stroke:#038048;stroke-width:1.0;"/><text fill="#000000" font-family="sans-serif" font-size="14" lengthAdjust="spacing" textLength="252" x="1325" y="1217.6118">match_format : Enum{Single, Double}</text><ellipse cx="1316" cy="1232.7477" fill="none" rx="3" ry="3" style="stroke:#038048;stroke-width:1.0;"/><text fill="#000000" font-family="sans-serif" font-size="14" lengthAdjust="spacing" textLength="329" x="1325" y="1236.6797">match_label : Str '&#40670;&#20301;&#21517;&#31281;&#65306;&#30007;&#21934; 30&#28151;&#38617; 50&#30007;&#38617;....</text><line style="stroke:#181818;stroke-width:1.0;" x1="1306" x2="1703" y1="1244.7817" y2="1244.7817"/><ellipse cx="1316" cy="1259.8156" fill="#84BE84" rx="3" ry="3" style="stroke:#038048;stroke-width:1.0;"/><text fill="#000000" font-family="sans-serif" font-size="14" lengthAdjust="spacing" textLength="373" x="1325" y="1263.7476">{ unique_together = ('team_match_id', 'match_number')}</text></g><!--class MatchSet--><g id="elem_MatchSet"><rect codeLine="123" fill="#F1F1F1" height="140.4075" id="MatchSet" rx="2.5" ry="2.5" style="stroke:#181818;stroke-width:0.5;" width="371" x="1319" y="1331.85"/><text fill="#000000" font-family="sans-serif" font-size="14" lengthAdjust="spacing" textLength="63" x="1473" y="1351.8159">MatchSet</text><line style="stroke:#181818;stroke-width:0.5;" x1="1320" x2="1689" y1="1360.9179" y2="1360.9179"/><ellipse cx="1330" cy="1375.9519" fill="none" rx="3" ry="3" style="stroke:#038048;stroke-width:1.0;"/><text fill="#000000" font-family="sans-serif" font-size="14" lengthAdjust="spacing" textLength="151" x="1339" y="1379.8839">player_match_id : &#171;FK&#187;</text><ellipse cx="1330" cy="1395.0198" fill="none" rx="3" ry="3" style="stroke:#038048;stroke-width:1.0;"/><text fill="#000000" font-family="sans-serif" font-size="14" lengthAdjust="spacing" textLength="160" x="1339" y="1398.9518">set_number : Int '&#31532;&#24190;&#23616;</text><ellipse cx="1330" cy="1414.0877" fill="none" rx="3" ry="3" style="stroke:#038048;stroke-width:1.0;"/><text fill="#000000" font-family="sans-serif" font-size="14" lengthAdjust="spacing" textLength="81" x="1339" y="1418.0197">score_a : Int</text><ellipse cx="1330" cy="1433.1556" fill="none" rx="3" ry="3" style="stroke:#038048;stroke-width:1.0;"/><text fill="#000000" font-family="sans-serif" font-size="14" lengthAdjust="spacing" textLength="82" x="1339" y="1437.0876">score_b : Int</text><line style="stroke:#181818;stroke-width:1.0;" x1="1320" x2="1689" y1="1445.1896" y2="1445.1896"/><text fill="#000000" font-family="sans-serif" font-size="14" lengthAdjust="spacing" textLength="359" x="1325" y="1464.1555">{ unique_together = ('player_match_id', 'set_number')}</text></g><!--class PlayerMatchParticipant--><g id="elem_PlayerMatchParticipant"><rect codeLine="132" fill="#F1F1F1" height="129.3396" id="PlayerMatchParticipant" rx="2.5" ry="2.5" style="stroke:#181818;stroke-width:0.5;" width="532" x="358.5" y="1337.39"/><text fill="#000000" font-family="sans-serif" font-size="14" lengthAdjust="spacing" textLength="156" x="546.5" y="1357.3559">PlayerMatchParticipant</text><line style="stroke:#181818;stroke-width:0.5;" x1="359.5" x2="889.5" y1="1366.4579" y2="1366.4579"/><ellipse cx="369.5" cy="1381.4919" fill="none" rx="3" ry="3" style="stroke:#038048;stroke-width:1.0;"/><text fill="#000000" font-family="sans-serif" font-size="14" lengthAdjust="spacing" textLength="151" x="378.5" y="1385.4239">player_match_id : &#171;FK&#187;</text><ellipse cx="369.5" cy="1400.5598" fill="none" rx="3" ry="3" style="stroke:#038048;stroke-width:1.0;"/><text fill="#000000" font-family="sans-serif" font-size="14" lengthAdjust="spacing" textLength="91" x="378.5" y="1404.4918">user_id : &#171;FK&#187;</text><line style="stroke:#181818;stroke-width:1.0;" x1="359.5" x2="889.5" y1="1412.5938" y2="1412.5938"/><ellipse cx="369.5" cy="1427.6277" fill="none" rx="3" ry="3" style="stroke:#038048;stroke-width:1.0;"/><text fill="#000000" font-family="sans-serif" font-size="14" lengthAdjust="spacing" textLength="506" x="378.5" y="1431.5597">position : Int {default=1} '&#22312;&#36889;&#35041;&#34920;&#31034;&#25171;&#31532;&#24190;&#34399;&#36984;&#25163;&#21934;&#25171;&#19968;&#34399;&#12289;&#38617;&#25171;&#20841;&#34399;&#20197;&#27492;&#32047;&#25512;</text><line style="stroke:#181818;stroke-width:1.0;" x1="359.5" x2="889.5" y1="1439.6617" y2="1439.6617"/><text fill="#000000" font-family="sans-serif" font-size="14" lengthAdjust="spacing" textLength="302" x="364.5" y="1458.6276">unique_together = (player_match_id, user_id)</text></g><!--reverse link AbstractUser to User--><g id="link_AbstractUser_User"><path codeLine="36" d="M514.5,423.24 C514.5,443.13 514.5,445.45 514.5,464.91 " fill="none" id="AbstractUser-backto-User" style="stroke:#181818;stroke-width:1.0;"/><polygon fill="none" points="514.5,405.24,508.5,423.24,520.5,423.24,514.5,405.24" style="stroke:#181818;stroke-width:1.0;"/></g><!--reverse link modelsModel to TimeStampedModel--><g id="link_modelsModel_TimeStampedModel"><path codeLine="143" d="M169.5,89.39 C169.5,127.12 169.5,172.01 169.5,216.5 " fill="none" id="modelsModel-backto-TimeStampedModel" style="stroke:#181818;stroke-width:1.0;"/><polygon fill="none" points="169.5,71.39,163.5,89.39,175.5,89.39,169.5,71.39" style="stroke:#181818;stroke-width:1.0;"/></g><!--reverse link TimeStampedModel to SoftDeleteModel--><g id="link_TimeStampedModel_SoftDeleteModel"><path codeLine="144" d="M274.25,337.6 C274.25,386.72 274.25,435.26 274.25,435.26 C274.25,435.26 997.5,435.26 997.5,435.26 C997.5,435.26 997.5,478.47 997.5,518.14 " fill="none" id="TimeStampedModel-backto-SoftDeleteModel" style="stroke:#181818;stroke-width:1.0;"/><polygon fill="none" points="274.25,319.6,268.25,337.6,280.25,337.6,274.25,319.6" style="stroke:#181818;stroke-width:1.0;"/></g><!--reverse link TimeStampedModel to TeamMember--><g id="link_TimeStampedModel_TeamMember"><path codeLine="146" d="M111.75,337.57 C111.75,508.79 111.75,1030.26 111.75,1030.26 C111.75,1030.26 200.91,1030.26 284.32,1030.26 " fill="none" id="TimeStampedModel-backto-TeamMember" style="stroke:#181818;stroke-width:1.0;"/><polygon fill="none" points="111.75,319.57,105.75,337.57,117.75,337.57,111.75,319.57" style="stroke:#181818;stroke-width:1.0;"/></g><!--reverse link SoftDeleteModel to Team--><g id="link_SoftDeleteModel_Team"><path codeLine="148" d="M947.67,665.97 C947.67,705.83 947.67,731.26 947.67,731.26 C947.67,731.26 733.2,731.26 733.2,731.26 C733.2,731.26 733.2,751.47 733.2,774.04 " fill="none" id="SoftDeleteModel-backto-Team" style="stroke:#181818;stroke-width:1.0;"/><polygon fill="none" points="947.67,647.97,941.67,665.97,953.67,665.97,947.67,647.97" style="stroke:#181818;stroke-width:1.0;"/></g><!--reverse link SoftDeleteModel to Event--><g id="link_SoftDeleteModel_Event"><path codeLine="149" d="M1047.33,665.81 C1047.33,701.55 1047.33,727.94 1047.33,764.52 " fill="none" id="SoftDeleteModel-backto-Event" style="stroke:#181818;stroke-width:1.0;"/><polygon fill="none" points="1047.33,647.81,1041.33,665.81,1053.33,665.81,1047.33,647.81" style="stroke:#181818;stroke-width:1.0;"/></g><!--reverse link SoftDeleteModel to BaseMatch--><g id="link_SoftDeleteModel_BaseMatch"><path codeLine="150" d="M1165.46,583.26 C1315.61,583.26 1506.5,583.26 1506.5,583.26 C1506.5,583.26 1506.5,686.25 1506.5,760.47 " fill="none" id="SoftDeleteModel-backto-BaseMatch" style="stroke:#181818;stroke-width:1.0;"/><polygon fill="none" points="1147.46,583.26,1165.46,589.26,1165.46,577.26,1147.46,583.26" style="stroke:#181818;stroke-width:1.0;"/></g><!--reverse link BaseMatch to PlayerMatch--><g id="link_BaseMatch_PlayerMatch"><path codeLine="152" d="M1192.7,811.26 C1192.7,811.26 1197,1211.26 1197,1211.26 C1197,1211.26 1245.82,1211.26 1304.55,1211.26 " fill="none" id="BaseMatch-backto-PlayerMatch" style="stroke:#181818;stroke-width:1.0;"/><polygon fill="none" points="1210.7,811.26,1192.7,805.26,1192.7,817.26,1210.7,811.26" style="stroke:#181818;stroke-width:1.0;"/></g><!--reverse link BaseMatch to TeamMatch--><g id="link_BaseMatch_TeamMatch"><path codeLine="153" d="M1653.88,927.48 C1653.88,947.14 1653.88,950.12 1653.88,968.97 " fill="none" id="BaseMatch-backto-TeamMatch" style="stroke:#181818;stroke-width:1.0;"/><polygon fill="none" points="1653.88,909.48,1647.88,927.48,1659.88,927.48,1653.88,909.48" style="stroke:#181818;stroke-width:1.0;"/></g><!--link Event to EventTeamMember--><g id="link_Event_EventTeamMember"><path codeLine="155" d="M993.5,905.6 C993.5,926.29 993.5,948.74 993.5,968.79 " fill="none" id="Event-EventTeamMember" style="stroke:#181818;stroke-width:1.0;"/><text fill="#000000" font-family="sans-serif" font-size="13" lengthAdjust="spacing" textLength="7" x="985.9758" y="927.0724">1</text><text fill="#000000" font-family="sans-serif" font-size="13" lengthAdjust="spacing" textLength="7" x="998.9922" y="957.2537">*</text></g><!--link Team to EventTeamMember--><g id="link_Team_EventTeamMember"><path codeLine="156" d="M645.5,896.09 C645.5,919.31 645.5,945.74 645.5,968.94 " fill="none" id="Team-EventTeamMember" style="stroke:#181818;stroke-width:1.0;"/><text fill="#000000" font-family="sans-serif" font-size="13" lengthAdjust="spacing" textLength="7" x="635.0547" y="917.6403">1</text><text fill="#000000" font-family="sans-serif" font-size="13" lengthAdjust="spacing" textLength="7" x="608.5797" y="957.4219">*</text></g><!--link User to EventTeamMember--><g id="link_User_EventTeamMember"><path codeLine="157" d="M792.75,701.2 C792.75,787.19 792.75,900.1 792.75,968.69 " fill="none" id="User-EventTeamMember" style="stroke:#181818;stroke-width:1.0;"/><text fill="#000000" font-family="sans-serif" font-size="13" lengthAdjust="spacing" textLength="7" x="802.4926" y="722.8458">1</text><text fill="#000000" font-family="sans-serif" font-size="13" lengthAdjust="spacing" textLength="7" x="774.3898" y="957.5746">*</text></g><!--link User to Team--><g id="link_User_Team"><path codeLine="159" d="M613.8,701.18 C613.8,726.38 613.8,752 613.8,773.97 " fill="none" id="User-Team" style="stroke:#181818;stroke-width:1.0;"/><text fill="#000000" font-family="sans-serif" font-size="13" lengthAdjust="spacing" textLength="37" x="575.8" y="733.477">leader</text><text fill="#000000" font-family="sans-serif" font-size="13" lengthAdjust="spacing" textLength="7" x="612.6378" y="722.8246">1</text><text fill="#000000" font-family="sans-serif" font-size="13" lengthAdjust="spacing" textLength="7" x="599.0975" y="762.4397">*</text></g><!--link User to Team--><g id="link_User_Team"><path codeLine="160" d="M653.6,701.18 C653.6,726.38 653.6,752 653.6,773.97 " fill="none" id="User-Team-1" style="stroke:#181818;stroke-width:1.0;"/><text fill="#000000" font-family="sans-serif" font-size="13" lengthAdjust="spacing" textLength="35" x="617.6" y="733.477">coach</text><text fill="#000000" font-family="sans-serif" font-size="13" lengthAdjust="spacing" textLength="7" x="654.8631" y="722.8246">1</text><text fill="#000000" font-family="sans-serif" font-size="13" lengthAdjust="spacing" textLength="7" x="643.7481" y="762.4397">*</text></g><!--link User to Team--><g id="link_User_Team"><path codeLine="161" d="M693.4,701.18 C693.4,726.38 693.4,752 693.4,773.97 " fill="none" id="User-Team-2" style="stroke:#181818;stroke-width:1.0;"/><text fill="#000000" font-family="sans-serif" font-size="13" lengthAdjust="spacing" textLength="43" x="649.4" y="752.477">creator</text><text fill="#000000" font-family="sans-serif" font-size="13" lengthAdjust="spacing" textLength="7" x="697.0884" y="722.8246">1</text><text fill="#000000" font-family="sans-serif" font-size="13" lengthAdjust="spacing" textLength="7" x="688.3988" y="762.4397">*</text></g><!--link User to TeamMember--><g id="link_User_TeamMember"><path codeLine="163" d="M426.5,701.2 C426.5,791.33 426.5,911.03 426.5,978.28 " fill="none" id="User-TeamMember" style="stroke:#181818;stroke-width:1.0;"/><text fill="#000000" font-family="sans-serif" font-size="13" lengthAdjust="spacing" textLength="7" x="413.9242" y="722.8458">1</text><text fill="#000000" font-family="sans-serif" font-size="13" lengthAdjust="spacing" textLength="7" x="419.0078" y="966.7799">*</text></g><!--link Team to TeamMember--><g id="link_Team_TeamMember"><path codeLine="164" d="M588.5,895.96 C588.5,953.26 588.5,1030.26 588.5,1030.26 C588.5,1030.26 580.89,1030.26 568.96,1030.26 " fill="none" id="Team-TeamMember" style="stroke:#181818;stroke-width:1.0;"/><text fill="#000000" font-family="sans-serif" font-size="13" lengthAdjust="spacing" textLength="7" x="571.8203" y="917.4961">1</text><text fill="#000000" font-family="sans-serif" font-size="13" lengthAdjust="spacing" textLength="7" x="576.4861" y="1026.7583">*</text></g><!--link Event to TeamMatch--><g id="link_Event_TeamMatch"><path codeLine="166" d="M1176.5,858.26 C1182.83,858.26 1186.5,858.26 1186.5,858.26 C1186.5,858.26 1186.5,1030.26 1186.5,1030.26 C1186.5,1030.26 1194.26,1030.26 1207.36,1030.26 " fill="none" id="Event-TeamMatch" style="stroke:#181818;stroke-width:1.0;"/><text fill="#000000" font-family="sans-serif" font-size="13" lengthAdjust="spacing" textLength="7" x="1184.2836" y="855.7957">1</text><text fill="#000000" font-family="sans-serif" font-size="13" lengthAdjust="spacing" textLength="7" x="1192.3742" y="1026.9518">*</text></g><!--link Team to TeamMatch--><g id="link_Team_TeamMatch"><path codeLine="167" d="M730.5,896.02 C730.5,914.14 730.5,929.26 730.5,929.26 C730.5,929.26 1506.25,929.26 1506.25,929.26 C1506.25,929.26 1506.25,947.66 1506.25,968.72 " fill="none" id="Team-TeamMatch" style="stroke:#181818;stroke-width:1.0;"/><text fill="#000000" font-family="sans-serif" font-size="13" lengthAdjust="spacing" textLength="39" x="1081.49" y="925.157">teamA</text><text fill="#000000" font-family="sans-serif" font-size="13" lengthAdjust="spacing" textLength="7" x="729.3516" y="917.5627">1</text><text fill="#000000" font-family="sans-serif" font-size="13" lengthAdjust="spacing" textLength="7" x="1499.0367" y="957.1751">*</text></g><!--link Team to TeamMatch--><g id="link_Team_TeamMatch"><path codeLine="168" d="M688,896.13 C688,923.3 688,949.26 688,949.26 C688,949.26 1358.63,949.26 1358.63,949.26 C1358.63,949.26 1358.63,957.53 1358.63,968.77 " fill="none" id="Team-TeamMatch-1" style="stroke:#181818;stroke-width:1.0;"/><text fill="#000000" font-family="sans-serif" font-size="13" lengthAdjust="spacing" textLength="39" x="966.5" y="945.157">teamB</text><text fill="#000000" font-family="sans-serif" font-size="13" lengthAdjust="spacing" textLength="7" x="682.2031" y="917.6847">1</text><text fill="#000000" font-family="sans-serif" font-size="13" lengthAdjust="spacing" textLength="7" x="1333.4255" y="957.2312">*</text></g><!--link TeamMatch to PlayerMatch--><g id="link_TeamMatch_PlayerMatch"><path codeLine="170" d="M1504.5,1090.98 C1504.5,1110.11 1504.5,1131.2 1504.5,1150.31 " fill="none" id="TeamMatch-PlayerMatch" style="stroke:#181818;stroke-width:1.0;"/><text fill="#000000" font-family="sans-serif" font-size="13" lengthAdjust="spacing" textLength="7" x="1497.1172" y="1112.5325">1</text><text fill="#000000" font-family="sans-serif" font-size="13" lengthAdjust="spacing" textLength="7" x="1497.0734" y="1138.7956">*</text></g><!--link PlayerMatch to MatchSet--><g id="link_PlayerMatch_MatchSet"><path codeLine="172" d="M1504.5,1272.1 C1504.5,1290.98 1504.5,1311.93 1504.5,1331.41 " fill="none" id="PlayerMatch-MatchSet" style="stroke:#181818;stroke-width:1.0;"/><text fill="#000000" font-family="sans-serif" font-size="13" lengthAdjust="spacing" textLength="7" x="1497.1172" y="1293.6285">1</text><text fill="#000000" font-family="sans-serif" font-size="13" lengthAdjust="spacing" textLength="7" x="1497.1391" y="1320.1817">*</text></g><!--link PlayerMatch to PlayerMatchParticipant--><g id="link_PlayerMatch_PlayerMatchParticipant"><path codeLine="173" d="M1312,1272.17 C1312,1328.09 1312,1402.26 1312,1402.26 C1312,1402.26 1084.15,1402.26 890.8,1402.26 " fill="none" id="PlayerMatch-PlayerMatchParticipant" style="stroke:#181818;stroke-width:1.0;"/><text fill="#000000" font-family="sans-serif" font-size="13" lengthAdjust="spacing" textLength="7" x="1289.9938" y="1291.4144">1</text><text fill="#000000" font-family="sans-serif" font-size="13" lengthAdjust="spacing" textLength="7" x="898.8097" y="1398.9211">*</text></g><!--link User to PlayerMatchParticipant--><g id="link_User_PlayerMatchParticipant"><path codeLine="174" d="M250.5,701.16 C250.5,928.07 250.5,1402.26 250.5,1402.26 C250.5,1402.26 297.5,1402.26 358.17,1402.26 " fill="none" id="User-PlayerMatchParticipant" style="stroke:#181818;stroke-width:1.0;"/><text fill="#000000" font-family="sans-serif" font-size="13" lengthAdjust="spacing" textLength="7" x="227.1992" y="722.8034">1</text><text fill="#000000" font-family="sans-serif" font-size="13" lengthAdjust="spacing" textLength="7" x="343.1594" y="1398.9211">*</text></g><!--SRC=[hLPRRzH657xthnYjX7QttKMWgYzH4ea0aIgQAbBIPsjYp-uQR8_hIsYqNIafHTmQWWfjHO2Mb5GAY6jB6mX9-J5Tx-M9lz0pux4zThnRAdKV4f_Bd3ddEvSvPJJSV37uSIEyUtFuvgTt-zyErzw65zS7boyDLn_q_xZHtzqSRDthFrfJMePEa6QucacKCXhiF0cVReAqzykz_jTxlISFkdlR_JilWQDuvmpRmIwsa6dOn5zn2AAktw8AdEk_tkzTUOlqizXkKdHYoVDThFcVUwJ__P_TWxkzPnlXwZM7k1wr5IoaI3EnvydABceh27uVeW086rj4a0uedgUkBiY6uNg-Aid1K8Oc5ZPCyMrugkVZHYCbuJ9ZcKZY03nZDyhMJDeqRC7GiK_KinIYZZrekZHmF3I1B6olBD8v-3jh45ENt5V1g6Luda7j8iMEeaJnbrZW9OGzL8W076thn0M7zGvgVqPjqf63p8e3s_WY40fbIMLo4j5buhgGwngAbAOMtO2WwMckMw_7o0QcgOfh5tpNi9io1BIXBXcGSX2U0XgrgUD3UDYCNSBBsCSkY3-nSBD0hha4pkagzeM9HGEkQkF0fwfDpwjOrxbViNxWwEFqXMvS92q09_9RkXcLJzB0r953VMBx1ZRD5OOjybi4YNgjyvDsO2qHjzvWsO62qyv116cD07e6Y7ImFqEfoK1luC3qfsQnwO4F7ILJnvDVrUiydqg-t4iMrOdf7PrZ_tZQ8mQdHVOXNRFGPmHA_XnBKUUm5GR4WeyjX-YffJmpAQOHkAF_2ZpA88ywSl7C4H-3SkmeroZoV84s_5F493v97S_n4hzrpcDko5xOKAHuoOHIDcoTV0cLdotYw5IbAiWMTdKrmvCyBd0OnbcT_s26NktkhmigwTT5Wgq8RlX8NFM1AEmSZZrrLKFdZJXxHlGSp1c2eNLbGHfRqZ4KQwrnAk1O9-FQ765rd3WOaLatXJaqUmObpl2HTLWWe6gBgQ7wj4cWTLmqXIfbOQnSGsLnl5nbhP0Ys7jsQ_3xGOoWyFBqCdGYTv1_9RuHHXLY64duapE1JaEdjXTfmCUZxTVGfmGt0wY6MTSWjcwknDYPLCDi2kIjmNFWWZM3tnENLNoJhUSbAMzQEYgXpgF8GP_ZvM8iIi3_cfducang40p3xgjLU8cZj5IuLZLYCQrmuz7Wma6uSI6yUZ_YHXqWnJg3FJA7VQt5eqme4LzvJ8Jbj44jTaHb4qR0dE4B-AMaHFneGBF71MgcpB5b_8d1mzzwZxSWdkxUjGh7lThV_AR_-77u-g_m_akGeNaJhn2Ngx_RtnGYWE7wTx0TPOS7PDWFl4eLrQUZIblGMaGFJABNuE9vbpPTudarT99Q3XzEy8bjZPWcUu7JSO8io0RLtsFUb1F8Qhm8JYHVCmp6xgjrsCHoIOP3OgFRlWIH3o-nZ_3vUk_oyymiI3ALKEzRYNYqQ6bqDKOXQh3oG8o6xNiJahN9z7WDiUQTAXsfOCTHOPmHi-gfHohST_XY-ghfSzsIL7vI8dbO4fqTSL7958KGIHhKjVZZ5kKOXWDxJqxHG9gzaIPtJgmLPIYNxi5wU6Ezl_E2LTAjtV27f-YZOxtTtU6Ts-ZZOy21ZwFmovRLc04QkyfwLQvqCKj5v3p61HBDpPX8OdOu3cEYzeYVQo3H1IzMOmsDkaJ5aJZ3Mv9uOwTEpWiMK7flDXmfSVCmKWtDSB1u58f5xn_g-7a91gXdY6U10P5iSiTXF8PtTuQhjmSFjWPRE_tjlTwLcn5CWzi_3zTUzQvSWtG34uOZSFvUNODS0nbUV0XazysllIVR_PVFUjTtv1iBaCh5K8jzhcRsZxeYhuPyfSnlUCgXbO-hvVOfPOHQ-ZufIdu5InHGiOWFsc9HyYeeIlf0S8cKshme6L2A4cq5fUCbm06LFYZb7rE5kpLEWU_WunGY3Kc1cvmGAzaeAL_6HWgZFQ_OjEnuiUXmr2aYXSSuTD5uFV6l6ZEAah8aFJaXYZnC9Prus8oI5_Vh8HX6gFq3]--></g></svg>